<?xml version="1.0" encoding="UTF-8" standalone="no" ?>
<!DOCTYPE svg PUBLIC "-//W3C//DTD SVG 1.1//EN" "http://www.w3.org/Graphics/SVG/1.1/DTD/svg11.dtd">
<svg xmlns="http://www.w3.org/2000/svg" xmlns:xlink="http://www.w3.org/1999/xlink" version="1.1" width="1280" height="1024" viewBox="0 0 1280 1024" xml:space="preserve">
<desc>Created with Fabric.js 4.4.0</desc>
<defs>
</defs>
<g transform="matrix(1 0 0 1 640 512)" id="background-logo"  >
<rect style="stroke: none; stroke-width: 0; stroke-dasharray: none; stroke-linecap: butt; stroke-dashoffset: 0; stroke-linejoin: miter; stroke-miterlimit: 4; fill: rgb(255,255,255); fill-opacity: 0; fill-rule: nonzero; opacity: 1;"  paint-order="stroke"  x="-640" y="-512" rx="0" ry="0" width="1280" height="1024" />
</g>
<g transform="matrix(1.9211538461538462 0 0 1.9211538461538462 635.4070014423077 744.7376447692307)" id="text-logo"  >
<g style=""  paint-order="stroke"   >
		<g transform="matrix(1 0 0 1 0 0)" id="text-logo-path-0"  >
<path style="stroke: none; stroke-width: 0; stroke-dasharray: none; stroke-linecap: butt; stroke-dashoffset: 0; stroke-linejoin: miter; stroke-miterlimit: 4; fill: rgb(217,217,216); fill-rule: nonzero; opacity: 1;"  paint-order="stroke"  transform=" translate(-167.61, 24.635)" d="M 0 -14.23 C 0 -5.26 3.65 0 10.8 0 C 17.3 0 21.54 -5.33 21.54 -13.94 C 21.54 -19.42 19.27 -22.7 17.37 -24.53 C 19.27 -26.43 21.54 -29.78 21.54 -35.19 C 21.54 -39.05 20.8 -42.12 19.13 -44.53 L 19.2 -44.46 C 17.23 -47.67 14.45 -49.2 10.8 -49.2 C 3.65 -49.2 0 -43.95 0 -34.89 L 0 -34.53 C 0 -33.07 1.17 -31.9 2.63 -31.9 L 4.75 -31.9 C 6.13 -31.9 7.3 -33.07 7.3 -34.53 L 7.3 -34.89 C 7.3 -39.64 8.54 -41.97 10.8 -41.97 C 11.68 -41.97 12.48 -41.54 12.99 -40.66 C 13.87 -39.35 14.23 -37.52 14.23 -35.19 C 14.23 -32.63 13.43 -30.88 12.26 -29.78 L 12.34 -29.78 C 11.31 -28.69 10.07 -28.18 9.13 -28.18 L 8.18 -28.18 C 6.72 -28.18 5.55 -27.01 5.55 -25.55 L 5.55 -23.58 C 5.55 -22.12 6.72 -20.95 8.18 -20.95 L 9.13 -20.95 C 9.85 -20.95 11.1 -20.59 12.26 -19.42 C 13.14 -18.61 14.23 -16.94 14.23 -13.94 C 14.23 -12.77 14.09 -11.68 13.94 -10.73 C 13.58 -9.27 12.77 -7.23 10.8 -7.23 C 8.54 -7.23 7.3 -9.34 7.3 -14.23 L 7.3 -14.6 C 7.3 -16.06 6.13 -17.23 4.75 -17.23 L 2.63 -17.23 C 1.17 -17.23 0 -16.06 0 -14.6 Z M 48.47 -28.18 L 48.47 -46.57 C 48.47 -48.03 47.3 -49.2 45.84 -49.2 L 43.8 -49.2 C 42.34 -49.2 41.17 -48.03 41.17 -46.57 L 41.17 -2.63 C 41.17 -1.17 42.34 0 43.8 0 L 45.84 0 C 47.3 0 48.47 -1.17 48.47 -2.63 L 48.47 -20.95 L 56.57 -20.95 L 56.57 -2.63 C 56.57 -1.17 57.74 0 59.2 0 L 61.25 0 C 62.71 0 63.88 -1.17 63.88 -2.63 L 63.88 -46.57 C 63.88 -48.03 62.71 -49.2 61.25 -49.2 L 59.2 -49.2 C 57.74 -49.2 56.57 -48.03 56.57 -46.57 L 56.57 -28.18 Z M 89.79 -2.04 C 90.08 -0.95 91.25 0 92.34 0 L 94.46 0 C 96.21 0 97.38 -1.53 97.02 -3.21 L 86.94 -47.16 C 86.72 -48.25 85.48 -49.2 84.39 -49.2 L 82.78 -49.2 C 81.69 -49.2 80.52 -48.25 80.23 -47.16 L 73.58 -18.61 L 70.08 -3.14 C 69.71 -1.46 70.88 0 72.63 0 L 74.75 0 C 75.85 0 77.01 -0.95 77.31 -2.04 L 79.86 -13.43 L 87.31 -13.43 Z M 83.58 -32.34 C 84.97 -26.13 84.83 -24.16 85.63 -20.66 L 81.54 -20.66 Z M 122.49 -4.6 C 122.49 -6.06 121.33 -7.23 119.87 -7.23 L 108.99 -7.23 L 108.99 -46.57 C 108.99 -48.03 107.82 -49.2 106.43 -49.2 L 104.32 -49.2 C 102.86 -49.2 101.69 -48.03 101.69 -46.57 L 101.69 -2.63 C 101.69 -1.17 102.86 0 104.32 0 L 119.87 0 C 121.33 0 122.49 -1.17 122.49 -2.63 Z M 134.03 -47.23 C 133.74 -48.33 132.57 -49.27 131.47 -49.27 L 129.43 -49.27 C 127.6 -49.27 126.44 -47.74 126.87 -46.06 L 137.24 -2.12 C 137.46 -0.95 138.63 -0.07 139.79 -0.07 L 141.33 -0.07 C 142.42 -0.07 143.59 -0.95 143.88 -2.12 L 154.25 -46.06 C 154.61 -47.74 153.45 -49.27 151.69 -49.27 L 149.58 -49.27 C 148.48 -49.27 147.24 -48.33 147.02 -47.23 L 140.52 -19.42 Z M 160.96 -49.2 C 159.5 -49.2 158.34 -48.03 158.34 -46.57 L 158.34 -2.63 C 158.34 -1.17 159.5 0 160.96 0 L 176.73 0 C 178.19 0 179.36 -1.17 179.36 -2.63 L 179.36 -4.6 C 179.36 -6.06 178.19 -7.23 176.73 -7.23 L 165.56 -7.23 L 165.56 -21.02 L 174.76 -21.02 C 176.22 -21.02 177.39 -22.19 177.39 -23.65 L 177.39 -25.62 C 177.39 -27.08 176.22 -28.25 174.76 -28.25 L 165.56 -28.25 L 165.56 -41.97 L 176.73 -41.97 C 178.19 -41.97 179.36 -43.14 179.36 -44.6 L 179.36 -46.57 C 179.36 -48.03 178.19 -49.2 176.73 -49.2 Z M 181.84 -14.31 C 181.84 -4.75 185.86 -0.07 193.89 -0.07 C 201.63 -0.07 205.93 -4.45 205.93 -12.63 C 205.93 -19.71 201.04 -23.43 196.22 -27.16 L 196.3 -27.16 C 192.72 -29.93 189.14 -32.78 189.14 -36.5 C 189.14 -40.3 190.82 -41.97 193.89 -41.97 C 197.1 -41.97 198.63 -39.78 198.63 -34.97 L 198.63 -33.95 C 198.63 -32.48 199.8 -31.32 201.26 -31.32 L 203.3 -31.32 C 204.76 -31.32 205.93 -32.48 205.93 -33.95 L 205.93 -34.97 C 205.93 -44.24 201.77 -49.27 193.89 -49.27 C 186.15 -49.27 181.84 -44.53 181.84 -36.28 C 181.84 -29.05 186.88 -25.11 191.7 -21.32 L 191.7 -21.39 C 195.27 -18.61 198.63 -15.91 198.63 -12.48 C 198.63 -8.61 196.95 -7.3 193.89 -7.3 C 192.87 -7.3 191.62 -7.45 190.82 -8.25 C 189.8 -9.13 189.14 -10.8 189.14 -14.31 L 189.14 -15.26 C 189.14 -16.72 187.9 -17.88 186.51 -17.88 L 184.47 -17.88 C 183.01 -17.88 181.84 -16.72 181.84 -15.26 Z M 246.52 -4.6 C 246.52 -6.06 245.35 -7.23 243.89 -7.23 L 233.02 -7.23 L 233.02 -46.57 C 233.02 -48.03 231.85 -49.2 230.46 -49.2 L 228.34 -49.2 C 226.88 -49.2 225.72 -48.03 225.72 -46.57 L 225.72 -2.63 C 225.72 -1.17 226.88 0 228.34 0 L 243.89 0 C 245.35 0 246.52 -1.17 246.52 -2.63 Z M 270.54 -2.04 C 270.83 -0.95 272 0 273.09 0 L 275.21 0 C 276.96 0 278.13 -1.53 277.76 -3.21 L 267.69 -47.16 C 267.47 -48.25 266.23 -49.2 265.14 -49.2 L 263.53 -49.2 C 262.44 -49.2 261.27 -48.25 260.97 -47.16 L 254.33 -18.61 L 250.83 -3.14 C 250.46 -1.46 251.63 0 253.38 0 L 255.5 0 C 256.59 0 257.76 -0.95 258.06 -2.04 L 260.61 -13.43 L 268.06 -13.43 Z M 264.33 -32.34 C 265.72 -26.13 265.57 -24.16 266.38 -20.66 L 262.29 -20.66 Z M 293.24 0 C 301.78 0 305.58 -4.67 305.58 -14.09 C 305.58 -18.54 304.34 -22.26 302.44 -24.6 L 302.44 -24.6 C 302.44 -24.6 305.58 -28.32 305.58 -35.11 C 305.58 -44.53 301.78 -49.2 293.24 -49.2 L 286.01 -49.2 C 284.55 -49.2 283.39 -48.03 283.39 -46.57 L 283.39 -2.63 C 283.39 -1.17 284.55 0 286.01 0 Z M 293.24 -41.97 C 296.82 -41.97 298.28 -40 298.28 -35.11 C 298.28 -30.22 296.82 -28.25 293.24 -28.25 L 290.69 -28.25 L 290.69 -41.97 Z M 293.24 -21.02 C 296.82 -21.02 298.28 -19.05 298.28 -14.09 C 298.28 -9.2 296.82 -7.23 293.24 -7.23 L 290.69 -7.23 L 290.69 -21.02 Z M 311.13 -14.31 C 311.13 -4.75 315.14 -0.07 323.17 -0.07 C 330.91 -0.07 335.22 -4.45 335.22 -12.63 C 335.22 -19.71 330.32 -23.43 325.51 -27.16 L 325.58 -27.16 C 322 -29.93 318.43 -32.78 318.43 -36.5 C 318.43 -40.3 320.11 -41.97 323.17 -41.97 C 326.38 -41.97 327.92 -39.78 327.92 -34.97 L 327.92 -33.95 C 327.92 -32.48 329.08 -31.32 330.54 -31.32 L 332.59 -31.32 C 334.05 -31.32 335.22 -32.48 335.22 -33.95 L 335.22 -34.97 C 335.22 -44.24 331.06 -49.27 323.17 -49.27 C 315.43 -49.27 311.13 -44.53 311.13 -36.28 C 311.13 -29.05 316.16 -25.11 320.98 -21.32 L 320.98 -21.39 C 324.56 -18.61 327.92 -15.91 327.92 -12.48 C 327.92 -8.61 326.24 -7.3 323.17 -7.3 C 322.15 -7.3 320.91 -7.45 320.11 -8.25 C 319.08 -9.13 318.43 -10.8 318.43 -14.31 L 318.43 -15.26 C 318.43 -16.72 317.19 -17.88 315.8 -17.88 L 313.75 -17.88 C 312.29 -17.88 311.13 -16.72 311.13 -15.26 Z" stroke-linecap="round" />
</g>
</g>
</g>
<g transform="matrix(1.9211538461538462 0 0 1.9211538461538462 638.9837096153847 857.0425351538461)" id="tagline-7fc30ac4-c171-486d-a29a-d8b81358d5df-logo"  >
<g style=""  paint-order="stroke"   >
		<g transform="matrix(1 0 0 1 0 0)" id="tagline-7fc30ac4-c171-486d-a29a-d8b81358d5df-logo-path-0"  >
<path style="stroke: none; stroke-width: 0; stroke-dasharray: none; stroke-linecap: butt; stroke-dashoffset: 0; stroke-linejoin: miter; stroke-miterlimit: 4; fill: rgb(217,217,216); fill-rule: nonzero; opacity: 1;"  paint-order="stroke"  transform=" translate(-186.695, 6.024999999999999)" d="M 12.88 -4.69 C 12.88 -5.75 12.47 -6.81 11.64 -7.5 C 11.09 -8 10.44 -8.28 9.71 -8.46 C 10.99 -9.25 11.55 -10.12 11.55 -11.68 C 11.55 -12.7 11.04 -13.71 10.26 -14.4 C 9.34 -15.13 8.23 -15.36 7.08 -15.36 L 3.59 -15.36 C 2.21 -15.36 1.43 -14.54 1.43 -13.2 L 1.43 -2.16 C 1.43 -0.78 2.21 0 3.59 0 L 8.19 0 C 10.86 0 12.88 -2.02 12.88 -4.69 Z M 8.23 -10.99 C 8.23 -10.12 7.59 -9.52 6.72 -9.52 L 4.97 -9.52 L 4.97 -12.28 L 6.58 -12.28 C 7.36 -12.28 8.23 -11.87 8.23 -10.99 Z M 9.25 -4.65 C 9.25 -4.28 9.11 -3.86 8.88 -3.59 C 8.46 -3.13 7.96 -3.08 7.41 -3.08 L 4.97 -3.08 L 4.97 -6.39 L 7.31 -6.39 C 8.42 -6.39 9.15 -5.98 9.25 -4.83 Z M 22.68 -10.26 C 22.68 -11.18 21.85 -11.87 20.88 -11.87 C 19.96 -11.87 19.23 -11.22 18.63 -10.63 C 18.26 -11.36 17.71 -11.82 16.88 -11.82 C 16.42 -11.82 15.96 -11.59 15.64 -11.22 C 15.32 -10.86 15.23 -10.35 15.23 -9.89 L 15.23 -1.75 C 15.23 -0.74 15.87 0.18 16.93 0.18 C 18.03 0.18 18.63 -0.69 18.63 -1.75 L 18.63 -6.35 C 18.63 -6.9 18.72 -7.41 19.14 -7.73 C 19.69 -8.14 20.33 -8.37 20.93 -8.6 C 21.8 -8.88 22.68 -9.15 22.68 -10.26 Z M 28.43 -14.9 C 28.43 -15.96 27.55 -16.88 26.5 -16.88 C 25.39 -16.88 24.52 -15.96 24.52 -14.9 C 24.52 -13.85 25.39 -12.93 26.5 -12.93 C 27.55 -12.93 28.43 -13.85 28.43 -14.9 Z M 28.15 -1.75 L 28.15 -9.94 C 28.15 -10.95 27.51 -11.82 26.45 -11.82 C 25.35 -11.82 24.75 -10.95 24.75 -9.94 L 24.75 -1.75 C 24.75 -0.74 25.39 0.18 26.45 0.18 C 27.55 0.18 28.15 -0.69 28.15 -1.75 Z M 41.91 -1.79 L 41.91 -15 C 41.91 -16.01 41.31 -16.88 40.25 -16.88 C 39.15 -16.88 38.55 -16.01 38.55 -15 L 38.55 -10.81 C 37.77 -11.45 36.89 -11.91 35.88 -11.91 C 34.68 -11.91 33.49 -11.41 32.61 -10.67 C 31.42 -9.61 30.54 -7.77 30.54 -6.16 C 30.54 -4.65 30.96 -3.17 31.83 -1.89 C 32.71 -0.64 34.09 0.23 35.6 0.23 C 36.89 0.23 37.81 -0.14 38.59 -1.2 C 38.87 -0.37 39.33 0.18 40.25 0.18 C 41.35 0.18 41.91 -0.78 41.91 -1.79 Z M 38.55 -6.03 C 38.55 -4.69 37.81 -3.08 36.29 -3.08 C 34.73 -3.08 33.95 -4.6 33.95 -5.98 C 33.95 -7.41 34.73 -8.92 36.29 -8.92 C 37.81 -8.92 38.55 -7.31 38.55 -6.03 Z M 55.48 -1.06 L 55.48 -9.98 C 55.48 -10.95 54.92 -11.82 53.87 -11.82 C 53.04 -11.82 52.58 -11.22 52.21 -10.58 C 51.38 -11.45 50.6 -11.91 49.31 -11.91 C 48.12 -11.91 46.92 -11.32 46.09 -10.49 C 44.85 -9.34 44.21 -7.64 44.21 -5.98 C 44.21 -4.37 44.57 -2.67 45.68 -1.43 C 46.64 -0.37 48.02 0.23 49.4 0.23 C 50.74 0.23 51.47 -0.37 52.21 -1.33 C 52.16 -0.69 52.16 -0.05 51.84 0.55 C 51.38 1.38 50.42 1.66 49.5 1.66 C 48.81 1.66 48.12 1.52 47.47 1.29 L 46.51 0.97 C 46.37 0.92 46.14 0.83 46 0.83 C 45.95 0.83 45.86 0.87 45.82 0.87 C 45.08 0.92 44.44 1.56 44.44 2.35 C 44.44 3.04 44.85 3.54 45.45 3.86 C 46.69 4.55 48.16 4.83 49.59 4.83 C 53.22 4.83 55.48 2.62 55.48 -1.06 Z M 52.16 -5.84 C 52.16 -4.51 51.43 -2.94 49.86 -2.94 C 49.27 -2.94 48.67 -3.22 48.25 -3.68 C 47.7 -4.32 47.61 -5.15 47.61 -5.98 C 47.61 -7.27 48.3 -8.74 49.73 -8.74 C 51.34 -8.74 52.16 -7.27 52.16 -5.84 Z M 62.15 -14.9 C 62.15 -15.96 61.27 -16.88 60.21 -16.88 C 59.11 -16.88 58.24 -15.96 58.24 -14.9 C 58.24 -13.85 59.11 -12.93 60.21 -12.93 C 61.27 -12.93 62.15 -13.85 62.15 -14.9 Z M 61.87 -1.75 L 61.87 -9.94 C 61.87 -10.95 61.23 -11.82 60.17 -11.82 C 59.06 -11.82 58.47 -10.95 58.47 -9.94 L 58.47 -1.75 C 58.47 -0.74 59.11 0.18 60.17 0.18 C 61.27 0.18 61.87 -0.69 61.87 -1.75 Z M 75.44 -1.75 L 75.44 -7.64 C 75.44 -8.92 75.21 -9.98 74.2 -10.86 C 73.37 -11.59 72.31 -11.87 71.25 -11.87 C 69.97 -11.87 69.09 -11.5 68.17 -10.63 C 67.9 -11.32 67.34 -11.82 66.61 -11.82 L 66.52 -11.82 C 65.41 -11.78 64.86 -10.86 64.86 -9.84 L 64.86 -1.75 C 64.86 -0.74 65.5 0.18 66.56 0.18 C 67.67 0.18 68.26 -0.69 68.26 -1.75 L 68.26 -6.99 C 68.26 -8 69.05 -8.97 70.1 -8.97 C 71.39 -8.97 72.04 -8 72.04 -6.85 L 72.04 -1.75 C 72.04 -0.74 72.68 0.18 73.74 0.18 C 74.84 0.18 75.44 -0.69 75.44 -1.75 Z M 88.96 -1.06 L 88.96 -9.98 C 88.96 -10.95 88.41 -11.82 87.35 -11.82 C 86.53 -11.82 86.07 -11.22 85.7 -10.58 C 84.87 -11.45 84.09 -11.91 82.8 -11.91 C 81.6 -11.91 80.41 -11.32 79.58 -10.49 C 78.34 -9.34 77.69 -7.64 77.69 -5.98 C 77.69 -4.37 78.06 -2.67 79.17 -1.43 C 80.13 -0.37 81.51 0.23 82.89 0.23 C 84.23 0.23 84.96 -0.37 85.7 -1.33 C 85.65 -0.69 85.65 -0.05 85.33 0.55 C 84.87 1.38 83.9 1.66 82.98 1.66 C 82.29 1.66 81.6 1.52 80.96 1.29 L 79.99 0.97 C 79.86 0.92 79.63 0.83 79.49 0.83 C 79.44 0.83 79.35 0.87 79.3 0.87 C 78.57 0.92 77.92 1.56 77.92 2.35 C 77.92 3.04 78.34 3.54 78.94 3.86 C 80.18 4.55 81.65 4.83 83.08 4.83 C 86.71 4.83 88.96 2.62 88.96 -1.06 Z M 85.65 -5.84 C 85.65 -4.51 84.92 -2.94 83.35 -2.94 C 82.75 -2.94 82.16 -3.22 81.74 -3.68 C 81.19 -4.32 81.1 -5.15 81.1 -5.98 C 81.1 -7.27 81.79 -8.74 83.21 -8.74 C 84.82 -8.74 85.65 -7.27 85.65 -5.84 Z M 117.53 -13.8 C 117.53 -13.98 117.53 -14.21 117.48 -14.35 C 117.35 -14.95 116.7 -15.59 116.1 -15.59 C 115.55 -15.59 114.95 -15.55 114.54 -15.04 C 114.22 -14.67 114.13 -14.17 113.99 -13.71 L 112.19 -5.66 L 109.53 -13.98 C 109.25 -14.95 108.7 -15.59 107.64 -15.59 C 106.67 -15.59 106.08 -14.86 105.8 -13.98 L 103.18 -5.66 L 101.29 -13.75 C 101.2 -14.21 101.06 -14.67 100.74 -15.09 C 100.37 -15.55 99.77 -15.59 99.22 -15.59 C 98.62 -15.59 97.98 -14.95 97.84 -14.4 C 97.84 -14.26 97.75 -14.08 97.75 -13.94 C 97.75 -13.75 97.84 -13.48 97.89 -13.29 L 100.79 -1.33 C 101.02 -0.41 101.98 0.23 102.9 0.23 C 104.33 0.23 105.06 -0.55 105.48 -1.89 L 107.64 -8.97 L 109.99 -1.7 C 110.4 -0.51 111.09 0.23 112.42 0.23 C 113.57 0.23 114.45 -0.6 114.72 -1.7 L 117.48 -13.29 C 117.53 -13.43 117.53 -13.62 117.53 -13.8 Z M 130.09 -5.84 C 130.09 -7.36 129.63 -8.92 128.57 -10.07 C 127.56 -11.18 125.99 -11.91 124.43 -11.91 C 122.87 -11.91 121.35 -11.18 120.29 -10.07 C 119.23 -8.92 118.77 -7.36 118.77 -5.84 C 118.77 -4.32 119.23 -2.76 120.29 -1.61 C 121.35 -0.46 122.91 0.23 124.48 0.23 C 125.99 0.23 127.56 -0.46 128.57 -1.61 C 129.63 -2.76 130.09 -4.32 130.09 -5.84 Z M 126.78 -5.84 C 126.78 -4.46 125.9 -2.94 124.38 -2.94 C 122.87 -2.94 122.13 -4.51 122.13 -5.84 C 122.13 -7.13 122.87 -8.74 124.38 -8.74 C 125.9 -8.74 126.78 -7.22 126.78 -5.84 Z M 139.75 -10.26 C 139.75 -11.18 138.92 -11.87 137.95 -11.87 C 137.03 -11.87 136.3 -11.22 135.7 -10.63 C 135.33 -11.36 134.78 -11.82 133.95 -11.82 C 133.49 -11.82 133.03 -11.59 132.71 -11.22 C 132.39 -10.86 132.3 -10.35 132.3 -9.89 L 132.3 -1.75 C 132.3 -0.74 132.94 0.18 134 0.18 C 135.1 0.18 135.7 -0.69 135.7 -1.75 L 135.7 -6.35 C 135.7 -6.9 135.79 -7.41 136.21 -7.73 C 136.76 -8.14 137.4 -8.37 138 -8.6 C 138.87 -8.88 139.75 -9.15 139.75 -10.26 Z M 144.99 -1.75 L 144.99 -15 C 144.99 -16.01 144.35 -16.88 143.29 -16.88 C 142.19 -16.88 141.59 -16.01 141.59 -15 L 141.59 -1.75 C 141.59 -0.74 142.23 0.18 143.29 0.18 C 144.39 0.18 144.99 -0.69 144.99 -1.75 Z M 158.47 -1.79 L 158.47 -15 C 158.47 -16.01 157.87 -16.88 156.81 -16.88 C 155.71 -16.88 155.11 -16.01 155.11 -15 L 155.11 -10.81 C 154.33 -11.45 153.46 -11.91 152.44 -11.91 C 151.25 -11.91 150.05 -11.41 149.18 -10.67 C 147.98 -9.61 147.11 -7.77 147.11 -6.16 C 147.11 -4.65 147.52 -3.17 148.4 -1.89 C 149.27 -0.64 150.65 0.23 152.17 0.23 C 153.46 0.23 154.38 -0.14 155.16 -1.2 C 155.43 -0.37 155.89 0.18 156.81 0.18 C 157.92 0.18 158.47 -0.78 158.47 -1.79 Z M 155.11 -6.03 C 155.11 -4.69 154.38 -3.08 152.86 -3.08 C 151.29 -3.08 150.51 -4.6 150.51 -5.98 C 150.51 -7.41 151.29 -8.92 152.86 -8.92 C 154.38 -8.92 155.11 -7.31 155.11 -6.03 Z M 169.79 -3.63 C 169.79 -4.42 169.46 -5.11 168.96 -5.66 C 168.22 -6.39 167.3 -6.76 166.38 -7.13 C 165.92 -7.27 164.54 -7.68 164.54 -8.33 L 164.59 -8.37 C 164.63 -8.74 165.05 -8.88 165.42 -8.92 C 165.88 -8.92 166.34 -8.74 166.8 -8.56 C 167.21 -8.37 167.62 -8.14 168.13 -8.1 L 168.18 -8.05 C 168.91 -8.05 169.51 -8.92 169.51 -9.61 C 169.51 -10.21 169.05 -10.72 168.54 -11.09 C 167.67 -11.68 166.61 -11.91 165.55 -11.91 C 164.36 -11.91 163.16 -11.45 162.33 -10.58 C 161.64 -9.89 161.32 -9.06 161.32 -8.14 C 161.32 -6.3 162.7 -5.47 164.27 -4.88 L 165.19 -4.55 C 165.65 -4.37 166.47 -4.14 166.47 -3.5 C 166.47 -3.04 165.88 -2.76 165.46 -2.76 C 165 -2.76 164.54 -2.94 164.13 -3.13 C 163.58 -3.4 163.02 -3.73 162.38 -3.73 C 161.64 -3.73 161 -2.94 161 -2.25 C 161 -0.41 164.04 0.23 165.42 0.23 C 166.47 0.23 167.67 -0.09 168.5 -0.78 C 169.33 -1.52 169.79 -2.58 169.79 -3.63 Z M 176.09 -1.52 C 176.09 -2.53 175.26 -3.36 174.25 -3.36 C 173.19 -3.36 172.36 -2.53 172.36 -1.52 C 172.36 -0.46 173.19 0.41 174.25 0.41 C 175.26 0.41 176.09 -0.46 176.09 -1.52 Z M 189.75 -1.75 L 189.75 -13.62 C 189.75 -14.67 189.11 -15.59 188 -15.59 C 186.85 -15.59 186.21 -14.67 186.21 -13.62 L 186.21 -1.75 C 186.21 -0.69 186.85 0.23 188 0.23 C 189.11 0.23 189.75 -0.69 189.75 -1.75 Z M 203.41 -1.06 L 203.41 -9.98 C 203.41 -10.95 202.86 -11.82 201.8 -11.82 C 200.97 -11.82 200.51 -11.22 200.15 -10.58 C 199.32 -11.45 198.54 -11.91 197.25 -11.91 C 196.05 -11.91 194.86 -11.32 194.03 -10.49 C 192.79 -9.34 192.14 -7.64 192.14 -5.98 C 192.14 -4.37 192.51 -2.67 193.61 -1.43 C 194.58 -0.37 195.96 0.23 197.34 0.23 C 198.67 0.23 199.41 -0.37 200.15 -1.33 C 200.1 -0.69 200.1 -0.05 199.78 0.55 C 199.32 1.38 198.35 1.66 197.43 1.66 C 196.74 1.66 196.05 1.52 195.41 1.29 L 194.44 0.97 C 194.3 0.92 194.07 0.83 193.94 0.83 C 193.89 0.83 193.8 0.87 193.75 0.87 C 193.02 0.92 192.37 1.56 192.37 2.35 C 192.37 3.04 192.79 3.54 193.38 3.86 C 194.63 4.55 196.1 4.83 197.52 4.83 C 201.16 4.83 203.41 2.62 203.41 -1.06 Z M 200.1 -5.84 C 200.1 -4.51 199.36 -2.94 197.8 -2.94 C 197.2 -2.94 196.6 -3.22 196.19 -3.68 C 195.64 -4.32 195.55 -5.15 195.55 -5.98 C 195.55 -7.27 196.24 -8.74 197.66 -8.74 C 199.27 -8.74 200.1 -7.27 200.1 -5.84 Z M 216.75 -1.75 L 216.75 -7.64 C 216.75 -8.92 216.52 -9.98 215.51 -10.86 C 214.68 -11.59 213.62 -11.87 212.57 -11.87 C 211.28 -11.87 210.4 -11.5 209.48 -10.63 C 209.21 -11.32 208.66 -11.82 207.92 -11.82 L 207.83 -11.82 C 206.72 -11.78 206.17 -10.86 206.17 -9.84 L 206.17 -1.75 C 206.17 -0.74 206.82 0.18 207.87 0.18 C 208.98 0.18 209.58 -0.69 209.58 -1.75 L 209.58 -6.99 C 209.58 -8 210.36 -8.97 211.42 -8.97 C 212.7 -8.97 213.35 -8 213.35 -6.85 L 213.35 -1.75 C 213.35 -0.74 213.99 0.18 215.05 0.18 C 216.15 0.18 216.75 -0.69 216.75 -1.75 Z M 223.51 -14.9 C 223.51 -15.96 222.64 -16.88 221.58 -16.88 C 220.48 -16.88 219.6 -15.96 219.6 -14.9 C 219.6 -13.85 220.48 -12.93 221.58 -12.93 C 222.64 -12.93 223.51 -13.85 223.51 -14.9 Z M 223.24 -1.75 L 223.24 -9.94 C 223.24 -10.95 222.59 -11.82 221.54 -11.82 C 220.43 -11.82 219.83 -10.95 219.83 -9.94 L 219.83 -1.75 C 219.83 -0.74 220.48 0.18 221.54 0.18 C 222.64 0.18 223.24 -0.69 223.24 -1.75 Z M 233.4 -10.12 C 233.4 -11.13 232.62 -11.64 231.7 -11.64 L 230.74 -11.64 L 230.74 -13.75 C 230.74 -14.77 230.14 -15.64 229.03 -15.64 C 227.93 -15.64 227.33 -14.77 227.33 -13.75 L 227.33 -11.64 L 227.01 -11.64 C 226.69 -11.64 226.27 -11.59 226 -11.45 C 225.54 -11.22 225.26 -10.63 225.26 -10.12 C 225.26 -9.75 225.4 -9.38 225.63 -9.11 C 226.04 -8.6 226.78 -8.6 227.33 -8.6 L 227.33 -1.75 C 227.33 -0.74 227.98 0.18 229.03 0.18 C 230.14 0.18 230.74 -0.69 230.74 -1.75 L 230.74 -8.6 L 231.7 -8.6 C 232.62 -8.6 233.4 -9.15 233.4 -10.12 Z M 239.15 -14.9 C 239.15 -15.96 238.28 -16.88 237.22 -16.88 C 236.12 -16.88 235.24 -15.96 235.24 -14.9 C 235.24 -13.85 236.12 -12.93 237.22 -12.93 C 238.28 -12.93 239.15 -13.85 239.15 -14.9 Z M 238.88 -1.75 L 238.88 -9.94 C 238.88 -10.95 238.23 -11.82 237.18 -11.82 C 236.07 -11.82 235.47 -10.95 235.47 -9.94 L 235.47 -1.75 C 235.47 -0.74 236.12 0.18 237.18 0.18 C 238.28 0.18 238.88 -0.69 238.88 -1.75 Z M 252.45 -1.75 L 252.45 -7.64 C 252.45 -8.92 252.22 -9.98 251.21 -10.86 C 250.38 -11.59 249.32 -11.87 248.26 -11.87 C 246.97 -11.87 246.1 -11.5 245.18 -10.63 C 244.9 -11.32 244.35 -11.82 243.62 -11.82 L 243.52 -11.82 C 242.42 -11.78 241.87 -10.86 241.87 -9.84 L 241.87 -1.75 C 241.87 -0.74 242.51 0.18 243.57 0.18 C 244.67 0.18 245.27 -0.69 245.27 -1.75 L 245.27 -6.99 C 245.27 -8 246.05 -8.97 247.11 -8.97 C 248.4 -8.97 249.04 -8 249.04 -6.85 L 249.04 -1.75 C 249.04 -0.74 249.69 0.18 250.75 0.18 C 251.85 0.18 252.45 -0.69 252.45 -1.75 Z M 265.97 -1.06 L 265.97 -9.98 C 265.97 -10.95 265.42 -11.82 264.36 -11.82 C 263.53 -11.82 263.07 -11.22 262.71 -10.58 C 261.88 -11.45 261.1 -11.91 259.81 -11.91 C 258.61 -11.91 257.42 -11.32 256.59 -10.49 C 255.35 -9.34 254.7 -7.64 254.7 -5.98 C 254.7 -4.37 255.07 -2.67 256.17 -1.43 C 257.14 -0.37 258.52 0.23 259.9 0.23 C 261.23 0.23 261.97 -0.37 262.71 -1.33 C 262.66 -0.69 262.66 -0.05 262.34 0.55 C 261.88 1.38 260.91 1.66 259.99 1.66 C 259.3 1.66 258.61 1.52 257.97 1.29 L 257 0.97 C 256.86 0.92 256.63 0.83 256.5 0.83 C 256.45 0.83 256.36 0.87 256.31 0.87 C 255.58 0.92 254.93 1.56 254.93 2.35 C 254.93 3.04 255.35 3.54 255.94 3.86 C 257.19 4.55 258.66 4.83 260.08 4.83 C 263.72 4.83 265.97 2.62 265.97 -1.06 Z M 262.66 -5.84 C 262.66 -4.51 261.92 -2.94 260.36 -2.94 C 259.76 -2.94 259.16 -3.22 258.75 -3.68 C 258.2 -4.32 258.11 -5.15 258.11 -5.98 C 258.11 -7.27 258.8 -8.74 260.22 -8.74 C 261.83 -8.74 262.66 -7.27 262.66 -5.84 Z M 287.04 -10.3 C 287.04 -11.68 286.44 -13.11 285.43 -14.08 C 284.42 -15.09 282.95 -15.36 281.52 -15.36 L 277.93 -15.36 C 276.6 -15.36 275.82 -14.54 275.82 -13.2 L 275.82 -1.75 C 275.82 -0.69 276.46 0.23 277.56 0.23 C 278.71 0.23 279.31 -0.69 279.31 -1.75 L 279.31 -5.06 L 281.98 -5.06 C 283.5 -5.06 284.92 -5.52 285.89 -6.67 C 286.72 -7.68 287.04 -9.02 287.04 -10.3 Z M 283.45 -10.12 C 283.45 -9.61 283.22 -9.11 282.85 -8.74 C 282.39 -8.23 281.75 -8.1 281.11 -8.1 L 279.31 -8.1 L 279.31 -12.28 L 281.29 -12.28 C 282.49 -12.28 283.36 -11.5 283.45 -10.3 Z M 299.97 -1.84 L 299.97 -10.07 C 299.97 -11.04 299.23 -11.82 298.26 -11.82 C 297.44 -11.82 296.93 -11.27 296.61 -10.58 C 295.73 -11.45 294.95 -11.91 293.71 -11.91 C 292.38 -11.91 291.13 -11.27 290.21 -10.35 C 288.97 -9.11 288.47 -7.59 288.47 -5.84 C 288.47 -4.05 289.06 -2.3 290.44 -1.06 C 291.36 -0.28 292.56 0.23 293.76 0.23 C 295.04 0.23 295.78 -0.23 296.61 -1.2 C 296.84 -0.46 297.39 0.18 298.22 0.18 C 299.32 0.18 299.97 -0.78 299.97 -1.84 Z M 296.52 -5.75 C 296.52 -4.32 295.64 -2.94 294.08 -2.94 C 292.47 -2.94 291.82 -4.51 291.82 -5.89 C 291.82 -7.22 292.56 -8.74 294.08 -8.74 C 295.83 -8.74 296.52 -7.31 296.52 -5.75 Z M 311.14 -3.63 C 311.14 -4.42 310.82 -5.11 310.32 -5.66 C 309.58 -6.39 308.66 -6.76 307.74 -7.13 C 307.28 -7.27 305.9 -7.68 305.9 -8.33 L 305.95 -8.37 C 305.99 -8.74 306.41 -8.88 306.77 -8.92 C 307.23 -8.92 307.69 -8.74 308.15 -8.56 C 308.57 -8.37 308.98 -8.14 309.49 -8.1 L 309.53 -8.05 C 310.27 -8.05 310.87 -8.92 310.87 -9.61 C 310.87 -10.21 310.41 -10.72 309.9 -11.09 C 309.03 -11.68 307.97 -11.91 306.91 -11.91 C 305.72 -11.91 304.52 -11.45 303.69 -10.58 C 303 -9.89 302.68 -9.06 302.68 -8.14 C 302.68 -6.3 304.06 -5.47 305.62 -4.88 L 306.54 -4.55 C 307 -4.37 307.83 -4.14 307.83 -3.5 C 307.83 -3.04 307.23 -2.76 306.82 -2.76 C 306.36 -2.76 305.9 -2.94 305.49 -3.13 C 304.93 -3.4 304.38 -3.73 303.74 -3.73 C 303 -3.73 302.36 -2.94 302.36 -2.25 C 302.36 -0.41 305.39 0.23 306.77 0.23 C 307.83 0.23 309.03 -0.09 309.86 -0.78 C 310.68 -1.52 311.14 -2.58 311.14 -3.63 Z M 321.91 -3.63 C 321.91 -4.42 321.59 -5.11 321.08 -5.66 C 320.34 -6.39 319.42 -6.76 318.5 -7.13 C 318.04 -7.27 316.66 -7.68 316.66 -8.33 L 316.71 -8.37 C 316.76 -8.74 317.17 -8.88 317.54 -8.92 C 318 -8.92 318.46 -8.74 318.92 -8.56 C 319.33 -8.37 319.75 -8.14 320.25 -8.1 L 320.3 -8.05 C 321.03 -8.05 321.63 -8.92 321.63 -9.61 C 321.63 -10.21 321.17 -10.72 320.67 -11.09 C 319.79 -11.68 318.73 -11.91 317.68 -11.91 C 316.48 -11.91 315.28 -11.45 314.46 -10.58 C 313.77 -9.89 313.44 -9.06 313.44 -8.14 C 313.44 -6.3 314.82 -5.47 316.39 -4.88 L 317.31 -4.55 C 317.77 -4.37 318.6 -4.14 318.6 -3.5 C 318.6 -3.04 318 -2.76 317.58 -2.76 C 317.12 -2.76 316.66 -2.94 316.25 -3.13 C 315.7 -3.4 315.15 -3.73 314.5 -3.73 C 313.77 -3.73 313.12 -2.94 313.12 -2.25 C 313.12 -0.41 316.16 0.23 317.54 0.23 C 318.6 0.23 319.79 -0.09 320.62 -0.78 C 321.45 -1.52 321.91 -2.58 321.91 -3.63 Z M 328.16 -14.9 C 328.16 -15.96 327.29 -16.88 326.23 -16.88 C 325.13 -16.88 324.25 -15.96 324.25 -14.9 C 324.25 -13.85 325.13 -12.93 326.23 -12.93 C 327.29 -12.93 328.16 -13.85 328.16 -14.9 Z M 327.89 -1.75 L 327.89 -9.94 C 327.89 -10.95 327.24 -11.82 326.19 -11.82 C 325.08 -11.82 324.48 -10.95 324.48 -9.94 L 324.48 -1.75 C 324.48 -0.74 325.13 0.18 326.19 0.18 C 327.29 0.18 327.89 -0.69 327.89 -1.75 Z M 341.6 -5.84 C 341.6 -7.36 341.14 -8.92 340.08 -10.07 C 339.07 -11.18 337.5 -11.91 335.94 -11.91 C 334.37 -11.91 332.86 -11.18 331.8 -10.07 C 330.74 -8.92 330.28 -7.36 330.28 -5.84 C 330.28 -4.32 330.74 -2.76 331.8 -1.61 C 332.86 -0.46 334.42 0.23 335.98 0.23 C 337.5 0.23 339.07 -0.46 340.08 -1.61 C 341.14 -2.76 341.6 -4.32 341.6 -5.84 Z M 338.28 -5.84 C 338.28 -4.46 337.41 -2.94 335.89 -2.94 C 334.37 -2.94 333.64 -4.51 333.64 -5.84 C 333.64 -7.13 334.37 -8.74 335.89 -8.74 C 337.41 -8.74 338.28 -7.22 338.28 -5.84 Z M 354.38 -1.75 L 354.38 -7.64 C 354.38 -8.92 354.15 -9.98 353.14 -10.86 C 352.31 -11.59 351.26 -11.87 350.2 -11.87 C 348.91 -11.87 348.04 -11.5 347.12 -10.63 C 346.84 -11.32 346.29 -11.82 345.55 -11.82 L 345.46 -11.82 C 344.36 -11.78 343.8 -10.86 343.8 -9.84 L 343.8 -1.75 C 343.8 -0.74 344.45 0.18 345.51 0.18 C 346.61 0.18 347.21 -0.69 347.21 -1.75 L 347.21 -6.99 C 347.21 -8 347.99 -8.97 349.05 -8.97 C 350.34 -8.97 350.98 -8 350.98 -6.85 L 350.98 -1.75 C 350.98 -0.74 351.62 0.18 352.68 0.18 C 353.79 0.18 354.38 -0.69 354.38 -1.75 Z M 365.65 -3.63 C 365.65 -4.42 365.33 -5.11 364.83 -5.66 C 364.09 -6.39 363.17 -6.76 362.25 -7.13 C 361.79 -7.27 360.41 -7.68 360.41 -8.33 L 360.46 -8.37 C 360.5 -8.74 360.92 -8.88 361.28 -8.92 C 361.74 -8.92 362.2 -8.74 362.66 -8.56 C 363.08 -8.37 363.49 -8.14 364 -8.1 L 364.04 -8.05 C 364.78 -8.05 365.38 -8.92 365.38 -9.61 C 365.38 -10.21 364.92 -10.72 364.41 -11.09 C 363.54 -11.68 362.48 -11.91 361.42 -11.91 C 360.23 -11.91 359.03 -11.45 358.2 -10.58 C 357.51 -9.89 357.19 -9.06 357.19 -8.14 C 357.19 -6.3 358.57 -5.47 360.13 -4.88 L 361.05 -4.55 C 361.51 -4.37 362.34 -4.14 362.34 -3.5 C 362.34 -3.04 361.74 -2.76 361.33 -2.76 C 360.87 -2.76 360.41 -2.94 360 -3.13 C 359.44 -3.4 358.89 -3.73 358.25 -3.73 C 357.51 -3.73 356.87 -2.94 356.87 -2.25 C 356.87 -0.41 359.9 0.23 361.28 0.23 C 362.34 0.23 363.54 -0.09 364.37 -0.78 C 365.19 -1.52 365.65 -2.58 365.65 -3.63 Z M 371.96 -1.52 C 371.96 -2.53 371.13 -3.36 370.12 -3.36 C 369.06 -3.36 368.23 -2.53 368.23 -1.52 C 368.23 -0.46 369.06 0.41 370.12 0.41 C 371.13 0.41 371.96 -0.46 371.96 -1.52 Z" stroke-linecap="round" />
</g>
</g>
</g>
<g transform="matrix(2.0312827588897053 0 0 2.0312827588897053 640 373.2446634615384)" id="logo-logo"  >
<g style=""  paint-order="stroke"   >
		<g transform="matrix(0.22168510693310126 0 0 -0.22168510693310126 0 0)"  >
<path style="stroke: none; stroke-width: 1; stroke-dasharray: none; stroke-linecap: butt; stroke-dashoffset: 0; stroke-linejoin: miter; stroke-miterlimit: 4; fill: rgb(217,217,216); fill-rule: nonzero; opacity: 1;"  paint-order="stroke"  transform=" translate(-402.04900000000004, -605)" d="M 724.117 695.559 C 718.4449999999999 703.148 712.586 710.5939999999999 706.414 717.766 L 610.031 717.766 C 611.227 720.5079999999999 612.512 723.1949999999999 613.602 725.992 C 621.9449999999999 747.461 627.0269999999999 770.4879999999999 628.492 794.5 L 742.949 794.5 C 741.5899999999999 759.938 735.055 726.723 724.117 695.559 z M 628.492 415.5 C 627.0269999999999 439.512 621.9449999999999 462.539 613.602 484.008 C 612.512 486.805 611.227 489.49199999999996 610.031 492.234 L 706.414 492.234 C 712.586 499.406 718.4449999999999 506.852 724.117 514.441 C 735.055 483.27700000000004 741.5899999999999 450.06300000000005 742.949 415.5 z M 402.051 60.5586 C 317.61699999999996 60.5586 240.301 91.4297 180.63299999999998 142.37900000000002 L 168.23 174.762 L 518.098 174.762 L 551.043 94.9414 C 506.008 72.9492 455.473 60.5586 402.051 60.5586 Z M 104.188 235.32 C 93.7031 253.98 84.9219 273.723 78.0391 294.32 L 202.488 294.32 C 214.508 272.227 229.969 252.262 248.316 235.32 z M 656.371 174.762 C 640.465 156.949 622.77 140.762 603.492 126.602 L 583.617 174.762 z M 518.098 1035.24 L 168.23 1035.24 L 180.63299999999998 1067.6200000000001 C 240.301 1118.5700000000002 317.61699999999996 1149.44 402.051 1149.44 C 455.47299999999996 1149.44 506.008 1137.05 551.043 1115.06 z M 202.195 915.125 L 77.875 915.125 C 84.7813 935.922 93.6094 955.855 104.188 974.68 L 248.31599999999997 974.68 C 229.81599999999997 957.598 214.25399999999996 937.438 202.19499999999996 915.125 z M 603.492 1083.4 C 622.77 1069.23 640.4649999999999 1053.0500000000002 656.371 1035.24 L 583.617 1035.24 Z M 748.109 605 C 753.395 613.891 758.4340000000001 622.945 763.0310000000001 632.262 C 789.23 685.305 804.0980000000001 744.8439999999999 804.0980000000001 807.949 C 804.0980000000001 823.91 802.9100000000001 839.578 801.094 855.059 L 624.16 855.059 C 614.2379999999999 901.895 589.7339999999999 943.332 555.785 974.68 L 699.688 974.68 C 706.906 961.828 713.332 948.473 718.879 934.6719999999999 C 723.4920000000001 923.1909999999999 734.5310000000001 915.617 746.902 915.617 C 768.07 915.617 783.027 936.938 775.1800000000001 956.5899999999999 C 715.965 1104.86 571.207 1210 402.051 1210 C 180.355 1210 0 1029.64 0 807.949 C 0 803.41 0 770.105 5.05469 733.941 L 326.434 733.941 C 332.535 733.941 338.492 735.7850000000001 343.523 739.234 L 343.648 739.32 C 368.168 756.113 356.27700000000004 794.5 326.559 794.5 L 61.2383 794.5 C 61.0625 798.996 60.558600000000006 803.41 60.558600000000006 807.949 C 60.558600000000006 823.77 61.699200000000005 839.3159999999999 63.8008 854.5659999999999 L 243.117 854.5659999999999 L 243.117 857.1519999999999 C 264.17199999999997 925.0039999999999 327.371 974.4879999999999 402.051 974.4879999999999 C 453.496 974.4879999999999 499.395 950.9179999999999 529.922 914.121 C 530.75 913.125 531.594 912.141 532.398 911.125 C 547.2660000000001 892.336 558.258 870.336 563.957 846.281 C 566.879 833.949 568.586 821.16 568.586 807.949 C 568.586 778.656 560.922 751.141 547.578 727.199 C 545.789 723.9839999999999 543.879 720.848 541.8829999999999 717.766 L 420.23 717.766 C 414.06600000000003 717.766 408.05100000000004 715.8829999999999 402.98400000000004 712.367 L 402.86300000000006 712.281 C 378.52700000000004 695.391 390.4800000000001 657.207 420.1050000000001 657.207 L 652.566 657.207 C 658.445 649.156 679.336 614.313 683.875 605 C 679.336 595.688 658.445 560.844 652.566 552.793 L 420.105 552.793 C 390.48 552.793 378.52700000000004 514.609 402.863 497.719 L 402.984 497.633 C 408.051 494.11699999999996 414.066 492.234 420.22999999999996 492.234 L 541.8829999999999 492.234 C 543.8789999999999 489.152 545.7889999999999 486.01599999999996 547.578 482.801 C 560.922 458.859 568.586 431.34799999999996 568.586 402.051 C 568.586 388.84 566.879 376.051 563.957 363.719 C 558.258 339.65999999999997 547.266 317.668 532.398 298.875 C 531.594 297.859 530.75 296.875 529.922 295.879 C 499.39500000000004 259.086 453.49600000000004 235.51200000000003 402.05100000000004 235.51200000000003 C 326.59400000000005 235.51200000000003 262.7850000000001 286.004 242.40200000000004 354.94100000000003 L 179.93800000000005 354.94100000000003 L 179.95300000000003 354.879 L 63.8906 354.879 C 61.7422 370.305 60.5586 386.035 60.5586 402.05100000000004 C 60.5586 406.59000000000003 61.0625 411.004 61.238299999999995 415.50000000000006 L 343.293 415.50000000000006 C 373.012 415.50000000000006 384.898 453.88700000000006 360.383 470.68000000000006 L 360.258 470.7660000000001 C 355.227 474.2150000000001 349.27 476.0590000000001 343.168 476.0590000000001 L 5.05469 476.0590000000001 C 0 439.895 0 406.59 0 402.051 C 0 180.359 180.355 0 402.051 0 C 571.207 0 715.965 105.141 775.18 253.41 C 783.0269999999999 273.063 768.0699999999999 294.383 746.9019999999999 294.383 C 734.531 294.383 723.492 286.80899999999997 718.8789999999999 275.328 C 713.3319999999999 261.527 706.906 248.17199999999997 699.6879999999999 235.31999999999996 L 555.785 235.31999999999996 C 589.7339999999999 266.66799999999995 614.2379999999999 308.10499999999996 624.16 354.941 L 801.0939999999999 354.941 C 802.91 370.42199999999997 804.098 386.09 804.098 402.051 C 804.098 465.156 789.2299999999999 524.6949999999999 763.031 577.738 C 758.434 587.0550000000001 753.395 596.109 748.1089999999999 605" stroke-linecap="round" />
</g>
</g>
</g>
</svg>